<svg width="168" height="386" viewBox="0 0 168 386" fill="none" xmlns="http://www.w3.org/2000/svg">
<g opacity="0.4">
<mask id="path-1-outside-1_547_97" maskUnits="userSpaceOnUse" x="16" y="147" width="136" height="133" fill="black">
<rect fill="white" x="16" y="147" width="136" height="133"/>
<path d="M71.8995 276.272V150.128H96.0915V276.272H71.8995ZM19.4835 224.72V201.968H148.508V224.72H19.4835Z"/>
</mask>
<path d="M71.8995 276.272V150.128H96.0915V276.272H71.8995ZM19.4835 224.72V201.968H148.508V224.72H19.4835Z" fill="#77B0AA"/>
<path d="M71.8995 276.272H68.8995V279.272H71.8995V276.272ZM71.8995 150.128V147.128H68.8995V150.128H71.8995ZM96.0915 150.128H99.0915V147.128H96.0915V150.128ZM96.0915 276.272V279.272H99.0915V276.272H96.0915ZM19.4835 224.72H16.4835V227.72H19.4835V224.72ZM19.4835 201.968V198.968H16.4835V201.968H19.4835ZM148.508 201.968H151.508V198.968H148.508V201.968ZM148.508 224.72V227.72H151.508V224.72H148.508ZM74.8995 276.272V150.128H68.8995V276.272H74.8995ZM71.8995 153.128H96.0915V147.128H71.8995V153.128ZM93.0915 150.128V276.272H99.0915V150.128H93.0915ZM96.0915 273.272H71.8995V279.272H96.0915V273.272ZM22.4835 224.72V201.968H16.4835V224.72H22.4835ZM19.4835 204.968H148.508V198.968H19.4835V204.968ZM145.508 201.968V224.72H151.508V201.968H145.508ZM148.508 221.72H19.4835V227.72H148.508V221.72Z" fill="#4DABE9" mask="url(#path-1-outside-1_547_97)"/>
</g>
<g opacity="0.3" filter="url(#filter0_f_547_97)">
<mask id="path-3-outside-2_547_97" maskUnits="userSpaceOnUse" x="114" y="85" width="40" height="38" fill="black">
<rect fill="white" x="114" y="85" width="40" height="38"/>
<path d="M130.975 119.568V88.032H137.023V119.568H130.975ZM117.871 106.68V100.992H150.127V106.68H117.871Z"/>
</mask>
<path d="M130.975 119.568V88.032H137.023V119.568H130.975ZM117.871 106.68V100.992H150.127V106.68H117.871Z" fill="#77B0AA"/>
<path d="M130.975 119.568H127.975V122.568H130.975V119.568ZM130.975 88.032V85.032H127.975V88.032H130.975ZM137.023 88.032H140.023V85.032H137.023V88.032ZM137.023 119.568V122.568H140.023V119.568H137.023ZM117.871 106.68H114.871V109.68H117.871V106.68ZM117.871 100.992V97.992H114.871V100.992H117.871ZM150.127 100.992H153.127V97.992H150.127V100.992ZM150.127 106.68V109.68H153.127V106.68H150.127ZM133.975 119.568V88.032H127.975V119.568H133.975ZM130.975 91.032H137.023V85.032H130.975V91.032ZM134.023 88.032V119.568H140.023V88.032H134.023ZM137.023 116.568H130.975V122.568H137.023V116.568ZM120.871 106.68V100.992H114.871V106.68H120.871ZM117.871 103.992H150.127V97.992H117.871V103.992ZM147.127 100.992V106.68H153.127V100.992H147.127ZM150.127 103.68H117.871V109.68H150.127V103.68Z" fill="#4DABE9" mask="url(#path-3-outside-2_547_97)"/>
</g>
<g opacity="0.3" filter="url(#filter1_f_547_97)">
<mask id="path-5-outside-3_547_97" maskUnits="userSpaceOnUse" x="66" y="60" width="36" height="35" fill="black">
<rect fill="white" x="66" y="60" width="36" height="35"/>
<path d="M81.311 91.616V63.584H86.687V91.616H81.311ZM69.663 80.16V75.104H98.335V80.16H69.663Z"/>
</mask>
<path d="M81.311 91.616V63.584H86.687V91.616H81.311ZM69.663 80.16V75.104H98.335V80.16H69.663Z" fill="#77B0AA"/>
<path d="M81.311 91.616H78.311V94.616H81.311V91.616ZM81.311 63.584V60.584H78.311V63.584H81.311ZM86.687 63.584H89.687V60.584H86.687V63.584ZM86.687 91.616V94.616H89.687V91.616H86.687ZM69.663 80.16H66.663V83.16H69.663V80.16ZM69.663 75.104V72.104H66.663V75.104H69.663ZM98.335 75.104H101.335V72.104H98.335V75.104ZM98.335 80.16V83.16H101.335V80.16H98.335ZM84.311 91.616V63.584H78.311V91.616H84.311ZM81.311 66.584H86.687V60.584H81.311V66.584ZM83.687 63.584V91.616H89.687V63.584H83.687ZM86.687 88.616H81.311V94.616H86.687V88.616ZM72.663 80.16V75.104H66.663V80.16H72.663ZM69.663 78.104H98.335V72.104H69.663V78.104ZM95.335 75.104V80.16H101.335V75.104H95.335ZM98.335 77.16H69.663V83.16H98.335V77.16Z" fill="#4DABE9" mask="url(#path-5-outside-3_547_97)"/>
</g>
<g opacity="0.4" filter="url(#filter2_f_547_97)">
<path d="M141.983 40.712V19.688H146.015V40.712H141.983ZM133.247 32.12V28.328H154.751V32.12H133.247Z" fill="#77B0AA"/>
</g>
<defs>
<filter id="filter0_f_547_97" x="115.871" y="86.0322" width="36.2559" height="35.5361" filterUnits="userSpaceOnUse" color-interpolation-filters="sRGB">
<feFlood flood-opacity="0" result="BackgroundImageFix"/>
<feBlend mode="normal" in="SourceGraphic" in2="BackgroundImageFix" result="shape"/>
<feGaussianBlur stdDeviation="1" result="effect1_foregroundBlur_547_97"/>
</filter>
<filter id="filter1_f_547_97" x="65.6631" y="59.584" width="36.6719" height="36.0322" filterUnits="userSpaceOnUse" color-interpolation-filters="sRGB">
<feFlood flood-opacity="0" result="BackgroundImageFix"/>
<feBlend mode="normal" in="SourceGraphic" in2="BackgroundImageFix" result="shape"/>
<feGaussianBlur stdDeviation="2" result="effect1_foregroundBlur_547_97"/>
</filter>
<filter id="filter2_f_547_97" x="131.247" y="17.6885" width="25.5044" height="25.0234" filterUnits="userSpaceOnUse" color-interpolation-filters="sRGB">
<feFlood flood-opacity="0" result="BackgroundImageFix"/>
<feBlend mode="normal" in="SourceGraphic" in2="BackgroundImageFix" result="shape"/>
<feGaussianBlur stdDeviation="1" result="effect1_foregroundBlur_547_97"/>
</filter>
</defs>
</svg>
