<svg width="68" height="72" viewBox="0 0 68 72" fill="none" xmlns="http://www.w3.org/2000/svg">
<path d="M34.0001 0C28.1847 0 24.7037 0.886154 22.4911 1.99108C21.3834 2.54492 20.597 3.12646 20.0681 3.72185C19.7049 4.16427 19.4125 4.66031 19.2013 5.19231C19.1145 5.41471 19.0567 5.64741 19.0296 5.88462L17.5564 24.8372C17.537 24.9535 17.5757 25.1418 17.5564 25.2692L17.3847 27.1745C17.3685 27.3467 17.3685 27.5201 17.3847 27.6923C17.3847 36.8308 24.8616 44.3077 34.0001 44.3077C43.1385 44.3077 50.6154 36.8308 50.6154 27.6923V27.2603C50.6159 27.2317 50.6159 27.2031 50.6154 27.1745L48.9705 5.88462C48.9434 5.64741 48.8857 5.41471 48.7988 5.19231C48.7988 5.19231 48.4637 4.31723 47.9321 3.72185C47.4031 3.12369 46.6167 2.54215 45.509 1.99108C43.2964 0.883385 39.8154 0 34.0001 0ZM34.0001 44.3077C15.7231 44.3077 0.769287 52.9089 0.769287 60.6628V72H67.2308V60.6628C67.2308 53.2966 53.7114 45.1828 36.6834 44.3935C35.7902 44.3346 34.8952 44.306 34.0001 44.3077ZM34.0001 5.53846C39.2616 5.53846 41.8896 6.36923 43.0001 6.92308C43.3711 7.10862 43.4154 7.18062 43.5207 7.26923L44.645 21.4615C42.0973 21.6166 38.6247 22.1538 34.0001 22.1538C29.3754 22.1538 25.9056 21.6166 23.3551 21.4615L24.4794 7.26923C24.5819 7.18062 24.629 7.10862 25.0001 6.92308C26.1105 6.36923 28.7385 5.53846 34.0001 5.53846ZM31.7487 8.30769V11.5975H28.4616V16.0975H31.7514V19.3846H36.2487V16.0948H39.5385V11.5975H36.2487V8.30769H31.7487ZM25.6924 50.5385L32.7899 66.4615H6.30775V60.6628C6.30775 58.5997 13.3693 52.5572 25.6924 50.5385ZM42.3078 50.5385C54.6308 52.56 61.6924 58.5997 61.6924 60.6628V66.4615H35.2102L42.3078 50.5385Z" fill="#003C43"/>
</svg>
