<svg width="33" height="34" viewBox="0 0 33 34" fill="none" xmlns="http://www.w3.org/2000/svg">
<path d="M7.21535 3.66616V0H3.60768V3.66616H0V7.33232H3.60768V10.9979H7.21535V7.33232H10.823V3.66616H7.21535ZM18.6005 15.0458C21.0894 15.0458 23.1086 12.9922 23.1086 10.4635C23.1086 9.86194 22.992 9.26625 22.7654 8.71046C22.5389 8.15468 22.2068 7.64969 21.7882 7.22433C21.3695 6.79897 20.8726 6.46157 20.3256 6.23141C19.7787 6.00124 19.1925 5.88281 18.6005 5.88288C18.0085 5.88281 17.4223 6.00124 16.8753 6.23141C16.3284 6.46157 15.8314 6.79897 15.4128 7.22433C14.9942 7.64969 14.6621 8.15468 14.4355 8.71046C14.209 9.26625 14.0924 9.86194 14.0924 10.4635C14.0924 12.9917 16.1116 15.0458 18.6005 15.0458ZM11.5392 34V29.9345L7.52721 31.0693C7.22549 31.1918 6.90358 31.2548 6.57867 31.2549C6.11248 31.2545 5.65516 31.1254 5.25565 30.8812C4.85614 30.637 4.52948 30.2871 4.31062 29.8688C4.09176 29.4505 3.98894 28.9796 4.01316 28.5065C4.03738 28.0333 4.18773 27.5758 4.44812 27.1829L10.8836 18.2155C11.5824 17.2433 12.558 16.1597 14.6155 16.1597H22.3957C24.4522 16.1597 25.4288 17.2433 26.1266 18.2155L32.562 27.1829C32.8222 27.5758 32.9724 28.0332 32.9965 28.5061C33.0207 28.9791 32.9179 29.4498 32.6993 29.868C32.4806 30.2862 32.1541 30.6361 31.7549 30.8804C31.3557 31.1247 30.8986 31.2541 30.4326 31.2549C30.1076 31.2549 29.7857 31.1919 29.484 31.0693L25.471 29.9345V34H11.5392ZM18.5053 31.1599L23.7042 29.4117L23.5869 29.3787C20.0003 28.3061 21.3969 23.4903 24.983 24.5657L25.4732 24.7333V19.2947L18.5053 21.6081L11.5381 19.2947V24.7333L12.0256 24.5657C15.6143 23.4903 17.0109 28.3061 13.4222 29.3787L13.3071 29.4117L18.5053 31.1599Z" fill="#A7D5F4"/>
</svg>
