<svg width="64" height="80" viewBox="0 0 64 80" fill="none" xmlns="http://www.w3.org/2000/svg">
<path d="M16.3333 16.4997C16.3333 7.84384 23.3441 0.833008 32 0.833008C40.6558 0.833008 47.6666 7.84384 47.6666 16.4997C47.6666 25.1555 40.6558 32.1663 32 32.1663C23.3441 32.1663 16.3333 25.1555 16.3333 16.4997ZM51.5833 79.1663H55.5C59.8083 79.1663 63.3333 75.6413 63.3333 71.333V52.6113C63.3333 48.2247 60.9441 44.1905 57.0275 42.193C55.3433 41.3313 53.5416 40.5088 51.5833 39.7647V79.1663ZM33.3316 59.583L43.75 37.3755C40.1075 36.553 36.1908 36.083 32 36.083C22.0908 36.083 13.5525 38.8247 6.97247 42.193C5.06137 43.1773 3.4604 44.672 2.34728 46.5111C1.23415 48.3501 0.652418 50.4617 0.666636 52.6113V79.1663H9.83164C8.96997 77.4038 8.49997 75.4063 8.49997 73.2913C8.49997 65.7322 14.6491 59.583 22.2083 59.583H33.3316ZM24.1666 79.1663L29.6891 67.4163H22.2083C18.9575 67.4163 16.3333 70.0405 16.3333 73.2913C16.3333 76.5422 18.9575 79.1663 22.2083 79.1663H24.1666Z" fill="#003C43"/>
</svg>
